<?xml version="1.0" standalone="no"?>
<!DOCTYPE svg PUBLIC "-//W3C//DTD SVG 20010904//EN"
 "http://www.w3.org/TR/2001/REC-SVG-20010904/DTD/svg10.dtd">
<svg version="1.0" xmlns="http://www.w3.org/2000/svg"
 width="447.000000pt" height="447.000000pt" viewBox="0 0 447.000000 447.000000"
 preserveAspectRatio="xMidYMid meet">
<metadata>
Created by potrace 1.14, written by Peter Selinger 2001-2017
</metadata>
<g transform="translate(0.000000,447.000000) scale(0.100000,-0.100000)"
fill="#000000" stroke="none">
<path d="M2355 3510 c-19 -8 -19 -9 3 -9 12 -1 22 4 22 9 0 6 -1 10 -2 9 -2 0
-12 -4 -23 -9z"/>
<path d="M2286 3400 c-32 -10 -64 -16 -71 -14 -7 3 -16 0 -20 -6 -5 -8 -10 -8
-20 0 -10 8 -23 5 -51 -11 -54 -29 -64 -39 -64 -59 0 -37 107 -54 190 -30 95
27 138 -2 126 -85 -8 -50 6 -79 46 -99 27 -13 49 -54 59 -111 5 -22 11 -52 14
-67 6 -23 3 -27 -29 -39 -19 -7 -33 -15 -31 -18 7 -6 -64 -31 -90 -31 -10 0
-39 -8 -63 -17 -44 -17 -52 -14 -65 20 -4 13 -57 -11 -57 -26 0 -8 9 -42 21
-76 19 -60 19 -121 -1 -121 -4 0 -11 -11 -14 -25 -5 -21 -12 -25 -46 -25 -46
0 -61 16 -28 30 21 9 21 9 -7 7 -24 -2 -31 2 -33 20 -3 19 -7 21 -21 13 -13
-6 -20 -26 -24 -65 -3 -31 -11 -62 -17 -69 -5 -8 -37 -23 -70 -35 -33 -12 -66
-29 -73 -37 -6 -8 -20 -23 -31 -34 -18 -18 -17 -19 25 -27 43 -9 44 -9 43 -48
-3 -102 -18 -223 -31 -255 -29 -69 -43 -126 -43 -175 0 -35 -7 -61 -23 -85
-19 -30 -22 -48 -21 -125 0 -75 5 -100 27 -147 14 -32 30 -58 35 -58 13 0 62
-79 62 -100 0 -10 6 -25 13 -32 6 -7 34 -38 61 -68 71 -79 279 -302 361 -388
39 -41 82 -80 98 -88 18 -10 27 -22 27 -40 0 -27 24 -71 52 -94 16 -14 16 -20
4 -80 -24 -112 -35 -172 -46 -255 -6 -44 -19 -135 -29 -202 l-18 -123 303 0
c284 0 303 1 308 18 12 37 66 112 81 112 8 0 27 -19 42 -42 15 -24 36 -53 47
-65 l19 -23 444 0 c244 0 443 4 443 9 0 4 -15 37 -33 72 -18 35 -41 84 -51
109 -11 25 -36 82 -58 128 -21 45 -38 86 -38 90 0 5 -13 36 -30 70 -16 34 -30
70 -30 80 0 10 -11 46 -25 80 -40 98 -35 118 38 180 57 49 63 51 75 35 7 -10
20 -17 29 -15 11 2 14 -1 10 -12 -3 -8 -2 -18 4 -21 5 -4 6 -11 3 -17 -4 -6 1
-8 15 -3 15 5 23 1 28 -12 7 -19 89 -129 134 -178 15 -16 47 -58 71 -91 39
-56 76 -107 169 -229 16 -22 36 -49 44 -60 13 -18 14 -3 15 121 0 119 -3 144
-16 155 -9 7 -39 47 -67 89 -27 41 -73 107 -102 145 -29 39 -55 84 -59 100 -4
17 -27 71 -51 120 -53 108 -89 250 -79 309 8 53 22 78 39 74 8 -2 78 -64 156
-138 191 -182 179 -175 179 -99 0 60 -1 63 -54 123 -29 34 -60 75 -69 93 -9
17 -22 37 -30 45 -7 7 -32 39 -55 70 -23 31 -46 59 -52 63 -6 3 -17 20 -26 36
-14 28 -13 36 20 142 40 128 66 228 66 251 0 9 -8 16 -20 16 -24 0 -24 2 -4
42 24 46 20 157 -7 210 -12 23 -67 87 -123 142 -56 56 -117 124 -136 151 -43
65 -82 99 -150 131 -64 30 -100 60 -100 84 0 9 -9 27 -20 40 -11 13 -20 31
-20 42 0 13 -7 18 -26 18 -15 0 -32 7 -38 15 -10 14 -15 14 -48 0 -23 -9 -68
-15 -117 -15 l-80 0 -3 78 -3 77 -46 -1 c-26 0 -67 -10 -95 -23 -45 -22 -59
-23 -162 -19 -80 4 -117 10 -130 20 -9 9 -39 18 -67 21 -53 5 -87 33 -79 64 4
13 -4 22 -26 32 -37 16 -50 44 -50 109 -1 58 -19 127 -44 167 -11 17 -25 40
-32 51 -32 54 -236 73 -358 34z m374 -425 c0 -13 -8 -29 -19 -34 -32 -18 -44
15 -15 43 22 23 34 20 34 -9z m-620 -481 c0 -8 -4 -12 -10 -9 -5 3 -10 10 -10
16 0 5 5 9 10 9 6 0 10 -7 10 -16z m1743 -436 c29 -15 47 -41 74 -108 27 -66
29 -110 6 -190 -15 -55 -33 -72 -33 -32 0 9 -7 30 -15 46 -8 15 -15 34 -15 42
0 12 -15 60 -60 200 -5 17 -10 36 -10 42 0 15 25 15 53 0z m-1478 -181 c38
-50 64 -111 121 -292 14 -44 54 -159 89 -255 90 -250 91 -278 17 -297 -20 -5
-29 -1 -41 18 -9 13 -45 57 -80 99 -55 64 -79 96 -123 164 -41 61 -152 246
-164 272 -23 48 -13 97 42 213 48 99 69 131 88 130 6 0 29 -24 51 -52z m1445
-611 c0 -7 -7 -19 -15 -26 -13 -11 -15 -8 -15 14 0 16 5 26 15 26 8 0 15 -6
15 -14z m-1290 -304 c0 -15 -24 -32 -47 -32 -25 0 -29 10 -11 28 13 13 58 16
58 4z"/>
<path d="M0 114 l0 -115 42 3 c35 2 45 8 56 31 7 15 20 27 29 27 10 0 13 5 8
18 -9 24 -9 24 -1 55 10 35 -5 54 -55 67 -22 6 -39 15 -39 20 0 6 -9 10 -20
10 -19 0 -20 -7 -20 -116z"/>
<path d="M850 39 c-8 -4 -33 -14 -55 -23 -38 -14 -24 -15 222 -15 144 -1 264
3 267 7 3 5 -5 15 -19 22 -23 12 -68 11 -166 -6 -22 -4 -54 0 -83 10 -49 17
-139 19 -166 5z"/>
<path d="M1368 3 c7 -3 16 -2 19 1 4 3 -2 6 -13 5 -11 0 -14 -3 -6 -6z"/>
</g>
</svg>
